<?xml version="1.0" standalone="no"?>
<!DOCTYPE svg PUBLIC "-//W3C//DTD SVG 20010904//EN"
 "http://www.w3.org/TR/2001/REC-SVG-20010904/DTD/svg10.dtd">
<svg version="1.0" xmlns="http://www.w3.org/2000/svg"
 width="512.000000pt" height="512.000000pt" viewBox="0 0 512.000000 512.000000"
 preserveAspectRatio="xMidYMid meet">

<g transform="translate(0.000000,512.000000) scale(0.100000,-0.100000)"
fill="#000000" stroke="none">
<path d="M2748 5091 l-33 -29 -5 -202 -5 -201 -65 -22 c-147 -50 -251 -140
-318 -277 -78 -158 -80 -318 -7 -477 l35 -76 -39 -106 c-22 -59 -47 -126 -56
-149 l-17 -42 -769 0 -769 0 0 110 c0 117 -12 159 -49 180 -32 17 -299 13
-362 -6 -115 -34 -198 -107 -252 -222 l-32 -67 0 -1590 c0 -1504 1 -1593 18
-1641 39 -113 123 -201 234 -246 l58 -23 2368 -3 2369 -2 34 34 34 34 0 1681
c0 1281 -3 1686 -12 1706 -26 57 4 55 -896 55 l-830 0 -41 113 c-76 209 -72
184 -40 248 106 212 67 462 -100 629 -69 68 -177 133 -247 148 l-39 8 -5 199
c-3 110 -9 207 -13 216 -11 22 -61 49 -91 49 -14 0 -40 -13 -58 -29z m195
-651 c70 -26 145 -96 183 -170 26 -49 29 -65 29 -150 0 -82 -4 -103 -26 -151
-83 -176 -304 -253 -476 -165 -61 30 -137 112 -164 173 -65 151 -13 333 122
425 100 69 214 82 332 38z m-2443 -2234 l0 -1404 -102 -4 c-77 -3 -115 -9
-151 -26 l-47 -21 2 1364 3 1363 30 44 c47 65 94 88 188 88 l77 0 0 -1404z
m1945 1089 c31 -14 85 -33 120 -43 l62 -17 -306 -842 c-178 -492 -311 -843
-318 -843 -21 0 -90 97 -113 157 -17 46 -21 74 -18 138 3 76 17 118 258 778
139 383 254 697 256 697 1 0 27 -11 59 -25z m803 -2 c5 -16 118 -325 251 -689
132 -363 245 -685 251 -714 14 -72 -1 -156 -40 -229 -36 -67 -85 -120 -99
-105 -9 9 -611 1657 -611 1672 0 4 29 15 64 26 35 10 86 28 112 41 62 30 60
30 72 -2z m-1088 9 c0 -4 -53 -154 -118 -332 l-118 -325 -128 -5 c-125 -5
-128 -6 -152 -33 -33 -38 -33 -96 0 -134 22 -25 31 -28 114 -33 l90 -5 -79
-215 c-95 -261 -103 -292 -101 -400 2 -180 91 -345 245 -456 l28 -20 -55 -153
c-31 -84 -56 -165 -56 -178 0 -34 60 -93 95 -93 15 0 40 8 56 17 35 21 13 -35
329 836 l243 667 257 0 c236 0 258 -1 265 -17 3 -10 124 -340 267 -733 146
-403 269 -725 280 -737 59 -64 168 -19 168 69 0 13 -25 91 -55 173 l-56 150
23 14 c13 8 54 45 91 83 81 81 130 176 154 298 24 122 11 191 -90 468 l-83
230 89 4 c83 3 90 5 113 31 33 38 33 96 0 134 -24 27 -27 28 -151 33 l-127 5
-113 310 c-62 171 -115 320 -119 333 l-7 22 730 0 731 0 0 -1555 0 -1555
-2283 0 -2284 0 -44 23 c-113 60 -144 211 -62 308 47 56 74 64 241 69 l154 5
29 33 29 32 0 1320 0 1320 730 0 c402 0 730 -4 730 -8z m754 -436 c42 -115 76
-212 76 -217 0 -5 -81 -9 -180 -9 -99 0 -180 3 -180 6 0 9 170 476 177 488 4
5 12 -6 19 -25 6 -19 46 -128 88 -243z"/>
</g>
</svg>